STARTFONT 2.1
COMMENT Font converted from OTF to BDF.
FONT -FreeType-LED Display7-Medium-R-Normal--8-80-72-72-P-49-ISO10646-1
SIZE 8 72 72
FONTBOUNDINGBOX 6 6 0 0
STARTPROPERTIES 19
POINT_SIZE 80
PIXEL_SIZE 8
RESOLUTION_X 72
RESOLUTION_Y 72
FONT_ASCENT 6
FONT_DESCENT 2
AVERAGE_WIDTH 49
SPACING "P"
FOUNDRY "FreeType"
FAMILY_NAME "LED Display7"
CHARSET_REGISTRY "ISO10646"
CHARSET_ENCODING "1"
WEIGHT_NAME "Medium"
SLANT "R"
SETWIDTH_NAME "Normal"
COPYRIGHT "Copyright (c) 2012 by Style-7. All rights reserved. http://www.styleseven.com"
_TTF_PSNAME "LEDDisplay7"
_OTF_FONTFILE "led_display-7.ttf"
_GBDFED_INFO "Edited with gbdfed 1.6."
ENDPROPERTIES
CHARS 223
STARTCHAR char32
ENCODING 32
SWIDTH 67 0
DWIDTH 6 0
BBX 0 0 0 0
BITMAP
ENDCHAR
STARTCHAR char33
ENCODING 33
SWIDTH 67 0
DWIDTH 6 0
BBX 1 5 2 0
BITMAP
80
80
80
00
80
ENDCHAR
STARTCHAR char34
ENCODING 34
SWIDTH 67 0
DWIDTH 6 0
BBX 3 2 1 3
BITMAP
A0
A0
ENDCHAR
STARTCHAR char35
ENCODING 35
SWIDTH 67 0
DWIDTH 6 0
BBX 5 5 0 0
BITMAP
50
F8
50
F8
50
ENDCHAR
STARTCHAR char36
ENCODING 36
SWIDTH 67 0
DWIDTH 6 0
BBX 5 5 0 0
BITMAP
F8
A0
F8
28
F8
ENDCHAR
STARTCHAR char37
ENCODING 37
SWIDTH 67 0
DWIDTH 6 0
BBX 5 5 0 0
BITMAP
C8
D0
20
58
98
ENDCHAR
STARTCHAR char38
ENCODING 38
SWIDTH 67 0
DWIDTH 6 0
BBX 5 5 0 0
BITMAP
F0
90
F8
90
F8
ENDCHAR
STARTCHAR char39
ENCODING 39
SWIDTH 67 0
DWIDTH 6 0
BBX 1 2 2 3
BITMAP
80
80
ENDCHAR
STARTCHAR char40
ENCODING 40
SWIDTH 67 0
DWIDTH 6 0
BBX 2 5 2 0
BITMAP
40
80
80
80
40
ENDCHAR
STARTCHAR char41
ENCODING 41
SWIDTH 67 0
DWIDTH 6 0
BBX 2 5 1 0
BITMAP
80
40
40
40
80
ENDCHAR
STARTCHAR char42
ENCODING 42
SWIDTH 67 0
DWIDTH 6 0
BBX 3 3 1 1
BITMAP
A0
40
A0
ENDCHAR
STARTCHAR char43
ENCODING 43
SWIDTH 67 0
DWIDTH 6 0
BBX 3 3 1 1
BITMAP
40
E0
40
ENDCHAR
STARTCHAR char44
ENCODING 44
SWIDTH 67 0
DWIDTH 6 0
BBX 2 2 2 0
BITMAP
80
40
ENDCHAR
STARTCHAR char45
ENCODING 45
SWIDTH 67 0
DWIDTH 6 0
BBX 3 1 1 2
BITMAP
E0
ENDCHAR
STARTCHAR char46
ENCODING 46
SWIDTH 67 0
DWIDTH 6 0
BBX 1 1 2 0
BITMAP
80
ENDCHAR
STARTCHAR char47
ENCODING 47
SWIDTH 67 0
DWIDTH 6 0
BBX 5 5 0 0
BITMAP
08
10
20
40
80
ENDCHAR
STARTCHAR char48
ENCODING 48
SWIDTH 67 0
DWIDTH 6 0
BBX 5 5 0 0
BITMAP
F8
98
A8
C8
F8
ENDCHAR
STARTCHAR char49
ENCODING 49
SWIDTH 67 0
DWIDTH 6 0
BBX 3 5 1 0
BITMAP
C0
40
40
40
E0
ENDCHAR
STARTCHAR char50
ENCODING 50
SWIDTH 67 0
DWIDTH 6 0
BBX 5 5 0 0
BITMAP
F8
08
F8
80
F8
ENDCHAR
STARTCHAR char51
ENCODING 51
SWIDTH 67 0
DWIDTH 6 0
BBX 5 5 0 0
BITMAP
F8
08
78
08
F8
ENDCHAR
STARTCHAR char52
ENCODING 52
SWIDTH 67 0
DWIDTH 6 0
BBX 5 5 0 0
BITMAP
88
88
F8
08
08
ENDCHAR
STARTCHAR char53
ENCODING 53
SWIDTH 67 0
DWIDTH 6 0
BBX 5 5 0 0
BITMAP
F8
80
F0
08
F0
ENDCHAR
STARTCHAR char54
ENCODING 54
SWIDTH 67 0
DWIDTH 6 0
BBX 5 5 0 0
BITMAP
F8
80
F8
88
F8
ENDCHAR
STARTCHAR char55
ENCODING 55
SWIDTH 67 0
DWIDTH 6 0
BBX 5 5 0 0
BITMAP
F8
88
08
08
08
ENDCHAR
STARTCHAR char56
ENCODING 56
SWIDTH 67 0
DWIDTH 6 0
BBX 5 5 0 0
BITMAP
F8
88
F8
88
F8
ENDCHAR
STARTCHAR char57
ENCODING 57
SWIDTH 67 0
DWIDTH 6 0
BBX 5 5 0 0
BITMAP
F8
88
F8
08
F8
ENDCHAR
STARTCHAR char58
ENCODING 58
SWIDTH 67 0
DWIDTH 6 0
BBX 1 3 2 1
BITMAP
80
00
80
ENDCHAR
STARTCHAR char59
ENCODING 59
SWIDTH 67 0
DWIDTH 6 0
BBX 2 4 2 0
BITMAP
80
00
80
40
ENDCHAR
STARTCHAR char60
ENCODING 60
SWIDTH 67 0
DWIDTH 6 0
BBX 3 5 1 0
BITMAP
20
40
80
40
20
ENDCHAR
STARTCHAR char61
ENCODING 61
SWIDTH 67 0
DWIDTH 6 0
BBX 3 3 1 1
BITMAP
E0
00
E0
ENDCHAR
STARTCHAR char62
ENCODING 62
SWIDTH 67 0
DWIDTH 6 0
BBX 3 5 1 0
BITMAP
80
40
20
40
80
ENDCHAR
STARTCHAR char63
ENCODING 63
SWIDTH 625 0
DWIDTH 5 0
BBX 4 5 1 0
BITMAP
F0
10
70
00
40
ENDCHAR
STARTCHAR char64
ENCODING 64
SWIDTH 750 0
DWIDTH 6 0
BBX 6 6 0 0
BITMAP
78
84
94
94
94
4C
ENDCHAR
STARTCHAR char65
ENCODING 65
SWIDTH 67 0
DWIDTH 6 0
BBX 5 5 0 0
BITMAP
F8
88
F8
88
88
ENDCHAR
STARTCHAR char66
ENCODING 66
SWIDTH 67 0
DWIDTH 6 0
BBX 5 5 0 0
BITMAP
F0
88
F8
88
F0
ENDCHAR
STARTCHAR char67
ENCODING 67
SWIDTH 67 0
DWIDTH 6 0
BBX 5 5 0 0
BITMAP
F8
80
80
80
F8
ENDCHAR
STARTCHAR char68
ENCODING 68
SWIDTH 67 0
DWIDTH 6 0
BBX 5 5 0 0
BITMAP
F0
88
88
88
F0
ENDCHAR
STARTCHAR char69
ENCODING 69
SWIDTH 67 0
DWIDTH 6 0
BBX 5 5 0 0
BITMAP
F8
80
F0
80
F8
ENDCHAR
STARTCHAR char70
ENCODING 70
SWIDTH 67 0
DWIDTH 6 0
BBX 5 5 0 0
BITMAP
F8
80
F0
80
80
ENDCHAR
STARTCHAR char71
ENCODING 71
SWIDTH 67 0
DWIDTH 6 0
BBX 5 5 0 0
BITMAP
F8
80
B8
88
F8
ENDCHAR
STARTCHAR char72
ENCODING 72
SWIDTH 67 0
DWIDTH 6 0
BBX 5 5 0 0
BITMAP
88
88
F8
88
88
ENDCHAR
STARTCHAR char73
ENCODING 73
SWIDTH 67 0
DWIDTH 6 0
BBX 3 5 1 0
BITMAP
E0
40
40
40
E0
ENDCHAR
STARTCHAR char74
ENCODING 74
SWIDTH 67 0
DWIDTH 6 0
BBX 5 5 0 0
BITMAP
F8
08
08
88
70
ENDCHAR
STARTCHAR char75
ENCODING 75
SWIDTH 67 0
DWIDTH 6 0
BBX 5 5 0 0
BITMAP
88
90
E0
90
88
ENDCHAR
STARTCHAR char76
ENCODING 76
SWIDTH 67 0
DWIDTH 6 0
BBX 5 5 0 0
BITMAP
80
80
80
80
F8
ENDCHAR
STARTCHAR char77
ENCODING 77
SWIDTH 67 0
DWIDTH 6 0
BBX 5 5 0 0
BITMAP
88
D8
A8
A8
88
ENDCHAR
STARTCHAR char78
ENCODING 78
SWIDTH 67 0
DWIDTH 6 0
BBX 5 5 0 0
BITMAP
88
C8
A8
98
88
ENDCHAR
STARTCHAR char79
ENCODING 79
SWIDTH 67 0
DWIDTH 6 0
BBX 5 5 0 0
BITMAP
F8
88
88
88
F8
ENDCHAR
STARTCHAR char80
ENCODING 80
SWIDTH 67 0
DWIDTH 6 0
BBX 5 5 0 0
BITMAP
F8
88
F8
80
80
ENDCHAR
STARTCHAR char81
ENCODING 81
SWIDTH 67 0
DWIDTH 6 0
BBX 5 5 0 0
BITMAP
F8
88
88
98
F8
ENDCHAR
STARTCHAR char82
ENCODING 82
SWIDTH 67 0
DWIDTH 6 0
BBX 5 5 0 0
BITMAP
F8
88
F8
90
88
ENDCHAR
STARTCHAR char83
ENCODING 83
SWIDTH 67 0
DWIDTH 6 0
BBX 5 5 0 0
BITMAP
F8
80
F8
08
F8
ENDCHAR
STARTCHAR char84
ENCODING 84
SWIDTH 67 0
DWIDTH 6 0
BBX 5 5 0 0
BITMAP
F8
20
20
20
20
ENDCHAR
STARTCHAR char85
ENCODING 85
SWIDTH 67 0
DWIDTH 6 0
BBX 5 5 0 0
BITMAP
88
88
88
88
F8
ENDCHAR
STARTCHAR char86
ENCODING 86
SWIDTH 67 0
DWIDTH 6 0
BBX 5 5 0 0
BITMAP
88
88
88
50
20
ENDCHAR
STARTCHAR char87
ENCODING 87
SWIDTH 67 0
DWIDTH 6 0
BBX 5 5 0 0
BITMAP
A8
A8
A8
A8
50
ENDCHAR
STARTCHAR char88
ENCODING 88
SWIDTH 67 0
DWIDTH 6 0
BBX 5 5 0 0
BITMAP
88
50
20
50
88
ENDCHAR
STARTCHAR char89
ENCODING 89
SWIDTH 67 0
DWIDTH 6 0
BBX 5 5 0 0
BITMAP
88
50
20
20
20
ENDCHAR
STARTCHAR char90
ENCODING 90
SWIDTH 67 0
DWIDTH 6 0
BBX 5 5 0 0
BITMAP
F8
10
20
40
F8
ENDCHAR
STARTCHAR char91
ENCODING 91
SWIDTH 67 0
DWIDTH 6 0
BBX 2 5 2 0
BITMAP
C0
80
80
80
C0
ENDCHAR
STARTCHAR char92
ENCODING 92
SWIDTH 67 0
DWIDTH 6 0
BBX 5 5 0 0
BITMAP
80
40
20
10
08
ENDCHAR
STARTCHAR char93
ENCODING 93
SWIDTH 67 0
DWIDTH 6 0
BBX 2 5 1 0
BITMAP
C0
40
40
40
C0
ENDCHAR
STARTCHAR char94
ENCODING 94
SWIDTH 67 0
DWIDTH 6 0
BBX 5 3 0 2
BITMAP
20
50
88
ENDCHAR
STARTCHAR char95
ENCODING 95
SWIDTH 67 0
DWIDTH 6 0
BBX 5 1 0 0
BITMAP
F8
ENDCHAR
STARTCHAR char96
ENCODING 96
SWIDTH 67 0
DWIDTH 6 0
BBX 2 2 2 3
BITMAP
80
40
ENDCHAR
STARTCHAR char97
ENCODING 97
SWIDTH 67 0
DWIDTH 6 0
BBX 5 5 0 0
BITMAP
F8
88
F8
88
88
ENDCHAR
STARTCHAR char98
ENCODING 98
SWIDTH 67 0
DWIDTH 6 0
BBX 5 5 0 0
BITMAP
F0
88
F8
88
F0
ENDCHAR
STARTCHAR char99
ENCODING 99
SWIDTH 67 0
DWIDTH 6 0
BBX 5 5 0 0
BITMAP
F8
80
80
80
F8
ENDCHAR
STARTCHAR char100
ENCODING 100
SWIDTH 67 0
DWIDTH 6 0
BBX 5 5 0 0
BITMAP
F0
88
88
88
F0
ENDCHAR
STARTCHAR char101
ENCODING 101
SWIDTH 67 0
DWIDTH 6 0
BBX 5 5 0 0
BITMAP
F8
80
F0
80
F8
ENDCHAR
STARTCHAR char102
ENCODING 102
SWIDTH 67 0
DWIDTH 6 0
BBX 5 5 0 0
BITMAP
F8
80
F0
80
80
ENDCHAR
STARTCHAR char103
ENCODING 103
SWIDTH 67 0
DWIDTH 6 0
BBX 5 5 0 0
BITMAP
F8
80
B8
88
F8
ENDCHAR
STARTCHAR char104
ENCODING 104
SWIDTH 67 0
DWIDTH 6 0
BBX 5 5 0 0
BITMAP
88
88
F8
88
88
ENDCHAR
STARTCHAR char105
ENCODING 105
SWIDTH 67 0
DWIDTH 6 0
BBX 3 5 1 0
BITMAP
E0
40
40
40
E0
ENDCHAR
STARTCHAR char106
ENCODING 106
SWIDTH 67 0
DWIDTH 6 0
BBX 5 5 0 0
BITMAP
F8
08
08
88
70
ENDCHAR
STARTCHAR char107
ENCODING 107
SWIDTH 67 0
DWIDTH 6 0
BBX 5 5 0 0
BITMAP
88
90
E0
90
88
ENDCHAR
STARTCHAR char108
ENCODING 108
SWIDTH 67 0
DWIDTH 6 0
BBX 5 5 0 0
BITMAP
80
80
80
80
F8
ENDCHAR
STARTCHAR char109
ENCODING 109
SWIDTH 67 0
DWIDTH 6 0
BBX 5 5 0 0
BITMAP
88
D8
A8
A8
88
ENDCHAR
STARTCHAR char110
ENCODING 110
SWIDTH 67 0
DWIDTH 6 0
BBX 5 5 0 0
BITMAP
88
C8
A8
98
88
ENDCHAR
STARTCHAR char111
ENCODING 111
SWIDTH 67 0
DWIDTH 6 0
BBX 5 5 0 0
BITMAP
F8
88
88
88
F8
ENDCHAR
STARTCHAR char112
ENCODING 112
SWIDTH 67 0
DWIDTH 6 0
BBX 5 5 0 0
BITMAP
F8
88
F8
80
80
ENDCHAR
STARTCHAR char113
ENCODING 113
SWIDTH 67 0
DWIDTH 6 0
BBX 5 5 0 0
BITMAP
F8
88
88
98
F8
ENDCHAR
STARTCHAR char114
ENCODING 114
SWIDTH 67 0
DWIDTH 6 0
BBX 5 5 0 0
BITMAP
F8
88
F8
90
88
ENDCHAR
STARTCHAR char115
ENCODING 115
SWIDTH 67 0
DWIDTH 6 0
BBX 5 5 0 0
BITMAP
F8
80
F8
08
F8
ENDCHAR
STARTCHAR char116
ENCODING 116
SWIDTH 67 0
DWIDTH 6 0
BBX 5 5 0 0
BITMAP
F8
20
20
20
20
ENDCHAR
STARTCHAR char117
ENCODING 117
SWIDTH 67 0
DWIDTH 6 0
BBX 5 5 0 0
BITMAP
88
88
88
88
F8
ENDCHAR
STARTCHAR char118
ENCODING 118
SWIDTH 67 0
DWIDTH 6 0
BBX 5 5 0 0
BITMAP
88
88
88
50
20
ENDCHAR
STARTCHAR char119
ENCODING 119
SWIDTH 67 0
DWIDTH 6 0
BBX 5 5 0 0
BITMAP
A8
A8
A8
A8
50
ENDCHAR
STARTCHAR char120
ENCODING 120
SWIDTH 67 0
DWIDTH 6 0
BBX 5 5 0 0
BITMAP
88
50
20
50
88
ENDCHAR
STARTCHAR char121
ENCODING 121
SWIDTH 67 0
DWIDTH 6 0
BBX 5 5 0 0
BITMAP
88
50
20
20
20
ENDCHAR
STARTCHAR char122
ENCODING 122
SWIDTH 67 0
DWIDTH 6 0
BBX 5 5 0 0
BITMAP
F8
10
20
40
F8
ENDCHAR
STARTCHAR char123
ENCODING 123
SWIDTH 67 0
DWIDTH 6 0
BBX 3 5 1 0
BITMAP
60
40
C0
40
60
ENDCHAR
STARTCHAR char124
ENCODING 124
SWIDTH 67 0
DWIDTH 6 0
BBX 1 5 2 0
BITMAP
80
80
80
80
80
ENDCHAR
STARTCHAR char125
ENCODING 125
SWIDTH 67 0
DWIDTH 6 0
BBX 3 5 1 0
BITMAP
C0
40
60
40
C0
ENDCHAR
STARTCHAR char126
ENCODING 126
SWIDTH 67 0
DWIDTH 6 0
BBX 4 2 0 2
BITMAP
50
A0
ENDCHAR
STARTCHAR char160
ENCODING 160
SWIDTH 67 0
DWIDTH 6 0
BBX 0 0 0 0
BITMAP
ENDCHAR
STARTCHAR char164
ENCODING 164
SWIDTH 67 0
DWIDTH 6 0
BBX 5 5 0 0
BITMAP
88
70
50
70
88
ENDCHAR
STARTCHAR char166
ENCODING 166
SWIDTH 67 0
DWIDTH 6 0
BBX 1 5 2 0
BITMAP
80
80
00
80
80
ENDCHAR
STARTCHAR char167
ENCODING 167
SWIDTH 67 0
DWIDTH 6 0
BBX 3 5 1 0
BITMAP
E0
80
E0
20
E0
ENDCHAR
STARTCHAR char169
ENCODING 169
SWIDTH 67 0
DWIDTH 6 0
BBX 5 5 0 0
BITMAP
88
70
40
70
88
ENDCHAR
STARTCHAR char171
ENCODING 171
SWIDTH 67 0
DWIDTH 6 0
BBX 5 5 0 0
BITMAP
28
50
A0
50
28
ENDCHAR
STARTCHAR char172
ENCODING 172
SWIDTH 67 0
DWIDTH 6 0
BBX 3 2 1 2
BITMAP
E0
20
ENDCHAR
STARTCHAR char173
ENCODING 173
SWIDTH 67 0
DWIDTH 6 0
BBX 3 1 1 2
BITMAP
E0
ENDCHAR
STARTCHAR char174
ENCODING 174
SWIDTH 67 0
DWIDTH 6 0
BBX 5 5 0 0
BITMAP
88
70
50
60
50
ENDCHAR
STARTCHAR char176
ENCODING 176
SWIDTH 67 0
DWIDTH 6 0
BBX 3 3 1 2
BITMAP
E0
A0
E0
ENDCHAR
STARTCHAR char177
ENCODING 177
SWIDTH 67 0
DWIDTH 6 0
BBX 3 5 1 0
BITMAP
40
E0
40
00
E0
ENDCHAR
STARTCHAR char181
ENCODING 181
SWIDTH 67 0
DWIDTH 6 0
BBX 5 5 0 0
BITMAP
88
88
88
D8
A8
ENDCHAR
STARTCHAR char182
ENCODING 182
SWIDTH 67 0
DWIDTH 6 0
BBX 5 5 0 0
BITMAP
F8
D0
50
50
50
ENDCHAR
STARTCHAR char183
ENCODING 183
SWIDTH 67 0
DWIDTH 6 0
BBX 1 1 2 2
BITMAP
80
ENDCHAR
STARTCHAR char187
ENCODING 187
SWIDTH 67 0
DWIDTH 6 0
BBX 5 5 0 0
BITMAP
A0
50
28
50
A0
ENDCHAR
STARTCHAR char956
ENCODING 956
SWIDTH 67 0
DWIDTH 6 0
BBX 5 5 0 0
BITMAP
88
88
88
D8
A8
ENDCHAR
STARTCHAR char1025
ENCODING 1025
SWIDTH 67 0
DWIDTH 6 0
BBX 5 5 0 0
BITMAP
F8
80
F0
80
F8
ENDCHAR
STARTCHAR char1026
ENCODING 1026
SWIDTH 67 0
DWIDTH 6 0
BBX 5 5 0 0
BITMAP
E0
80
F8
88
B8
ENDCHAR
STARTCHAR char1027
ENCODING 1027
SWIDTH 67 0
DWIDTH 6 0
BBX 5 5 0 0
BITMAP
20
F8
80
80
80
ENDCHAR
STARTCHAR char1028
ENCODING 1028
SWIDTH 67 0
DWIDTH 6 0
BBX 5 5 0 0
BITMAP
78
80
E0
80
78
ENDCHAR
STARTCHAR char1029
ENCODING 1029
SWIDTH 67 0
DWIDTH 6 0
BBX 5 5 0 0
BITMAP
F8
80
F8
08
F8
ENDCHAR
STARTCHAR char1030
ENCODING 1030
SWIDTH 67 0
DWIDTH 6 0
BBX 3 5 1 0
BITMAP
E0
40
40
40
E0
ENDCHAR
STARTCHAR char1031
ENCODING 1031
SWIDTH 67 0
DWIDTH 6 0
BBX 3 5 1 0
BITMAP
A0
40
40
40
40
ENDCHAR
STARTCHAR char1032
ENCODING 1032
SWIDTH 67 0
DWIDTH 6 0
BBX 5 5 0 0
BITMAP
F8
08
08
88
70
ENDCHAR
STARTCHAR char1033
ENCODING 1033
SWIDTH 67 0
DWIDTH 6 0
BBX 5 5 0 0
BITMAP
60
A0
B8
A8
B8
ENDCHAR
STARTCHAR char1034
ENCODING 1034
SWIDTH 67 0
DWIDTH 6 0
BBX 5 5 0 0
BITMAP
A0
A0
F8
A8
B8
ENDCHAR
STARTCHAR char1035
ENCODING 1035
SWIDTH 67 0
DWIDTH 6 0
BBX 5 5 0 0
BITMAP
E0
80
F8
88
88
ENDCHAR
STARTCHAR char1036
ENCODING 1036
SWIDTH 67 0
DWIDTH 6 0
BBX 5 5 0 0
BITMAP
A8
90
E0
90
88
ENDCHAR
STARTCHAR char1038
ENCODING 1038
SWIDTH 67 0
DWIDTH 6 0
BBX 5 5 0 0
BITMAP
A8
88
50
20
20
ENDCHAR
STARTCHAR char1039
ENCODING 1039
SWIDTH 67 0
DWIDTH 6 0
BBX 5 5 0 0
BITMAP
88
88
88
F8
20
ENDCHAR
STARTCHAR char1040
ENCODING 1040
SWIDTH 67 0
DWIDTH 6 0
BBX 5 5 0 0
BITMAP
F8
88
F8
88
88
ENDCHAR
STARTCHAR char1041
ENCODING 1041
SWIDTH 67 0
DWIDTH 6 0
BBX 5 5 0 0
BITMAP
F8
80
F0
88
F0
ENDCHAR
STARTCHAR char1042
ENCODING 1042
SWIDTH 67 0
DWIDTH 6 0
BBX 5 5 0 0
BITMAP
F0
88
F8
88
F0
ENDCHAR
STARTCHAR char1043
ENCODING 1043
SWIDTH 67 0
DWIDTH 6 0
BBX 5 5 0 0
BITMAP
F8
80
80
80
80
ENDCHAR
STARTCHAR char1044
ENCODING 1044
SWIDTH 67 0
DWIDTH 6 0
BBX 5 5 0 0
BITMAP
70
50
50
50
F8
ENDCHAR
STARTCHAR char1045
ENCODING 1045
SWIDTH 67 0
DWIDTH 6 0
BBX 5 5 0 0
BITMAP
F8
80
F0
80
F8
ENDCHAR
STARTCHAR char1046
ENCODING 1046
SWIDTH 67 0
DWIDTH 6 0
BBX 5 5 0 0
BITMAP
A8
A8
F8
A8
A8
ENDCHAR
STARTCHAR char1047
ENCODING 1047
SWIDTH 67 0
DWIDTH 6 0
BBX 5 5 0 0
BITMAP
F8
08
70
08
F8
ENDCHAR
STARTCHAR char1048
ENCODING 1048
SWIDTH 67 0
DWIDTH 6 0
BBX 5 5 0 0
BITMAP
88
98
A8
C8
88
ENDCHAR
STARTCHAR char1049
ENCODING 1049
SWIDTH 67 0
DWIDTH 6 0
BBX 5 5 0 0
BITMAP
A8
98
A8
C8
88
ENDCHAR
STARTCHAR char1050
ENCODING 1050
SWIDTH 67 0
DWIDTH 6 0
BBX 5 5 0 0
BITMAP
88
90
E0
90
88
ENDCHAR
STARTCHAR char1051
ENCODING 1051
SWIDTH 67 0
DWIDTH 6 0
BBX 5 5 0 0
BITMAP
38
48
88
88
88
ENDCHAR
STARTCHAR char1052
ENCODING 1052
SWIDTH 67 0
DWIDTH 6 0
BBX 5 5 0 0
BITMAP
88
D8
A8
A8
88
ENDCHAR
STARTCHAR char1053
ENCODING 1053
SWIDTH 67 0
DWIDTH 6 0
BBX 5 5 0 0
BITMAP
88
88
F8
88
88
ENDCHAR
STARTCHAR char1054
ENCODING 1054
SWIDTH 67 0
DWIDTH 6 0
BBX 5 5 0 0
BITMAP
F8
88
88
88
F8
ENDCHAR
STARTCHAR char1055
ENCODING 1055
SWIDTH 67 0
DWIDTH 6 0
BBX 5 5 0 0
BITMAP
F8
88
88
88
88
ENDCHAR
STARTCHAR char1056
ENCODING 1056
SWIDTH 67 0
DWIDTH 6 0
BBX 5 5 0 0
BITMAP
F8
88
F8
80
80
ENDCHAR
STARTCHAR char1057
ENCODING 1057
SWIDTH 67 0
DWIDTH 6 0
BBX 5 5 0 0
BITMAP
F8
80
80
80
F8
ENDCHAR
STARTCHAR char1058
ENCODING 1058
SWIDTH 67 0
DWIDTH 6 0
BBX 5 5 0 0
BITMAP
F8
20
20
20
20
ENDCHAR
STARTCHAR char1059
ENCODING 1059
SWIDTH 67 0
DWIDTH 6 0
BBX 5 5 0 0
BITMAP
88
88
F8
08
F8
ENDCHAR
STARTCHAR char1060
ENCODING 1060
SWIDTH 67 0
DWIDTH 6 0
BBX 5 5 0 0
BITMAP
F8
A8
A8
F8
20
ENDCHAR
STARTCHAR char1061
ENCODING 1061
SWIDTH 67 0
DWIDTH 6 0
BBX 5 5 0 0
BITMAP
88
50
20
50
88
ENDCHAR
STARTCHAR char1062
ENCODING 1062
SWIDTH 67 0
DWIDTH 6 0
BBX 5 5 0 0
BITMAP
90
90
90
90
F8
ENDCHAR
STARTCHAR char1063
ENCODING 1063
SWIDTH 67 0
DWIDTH 6 0
BBX 5 5 0 0
BITMAP
88
88
78
08
08
ENDCHAR
STARTCHAR char1064
ENCODING 1064
SWIDTH 67 0
DWIDTH 6 0
BBX 5 5 0 0
BITMAP
A8
A8
A8
A8
F8
ENDCHAR
STARTCHAR char1065
ENCODING 1065
SWIDTH 67 0
DWIDTH 6 0
BBX 5 5 0 0
BITMAP
A8
A8
A8
F8
08
ENDCHAR
STARTCHAR char1066
ENCODING 1066
SWIDTH 67 0
DWIDTH 6 0
BBX 5 5 0 0
BITMAP
C0
40
78
48
78
ENDCHAR
STARTCHAR char1067
ENCODING 1067
SWIDTH 67 0
DWIDTH 6 0
BBX 5 5 0 0
BITMAP
88
88
E8
A8
E8
ENDCHAR
STARTCHAR char1068
ENCODING 1068
SWIDTH 67 0
DWIDTH 6 0
BBX 5 5 0 0
BITMAP
80
80
F8
88
F8
ENDCHAR
STARTCHAR char1069
ENCODING 1069
SWIDTH 67 0
DWIDTH 6 0
BBX 5 5 0 0
BITMAP
F8
08
38
08
F8
ENDCHAR
STARTCHAR char1070
ENCODING 1070
SWIDTH 67 0
DWIDTH 6 0
BBX 5 5 0 0
BITMAP
B8
A8
E8
A8
B8
ENDCHAR
STARTCHAR char1071
ENCODING 1071
SWIDTH 67 0
DWIDTH 6 0
BBX 5 5 0 0
BITMAP
F8
88
F8
48
88
ENDCHAR
STARTCHAR char1072
ENCODING 1072
SWIDTH 67 0
DWIDTH 6 0
BBX 5 5 0 0
BITMAP
F8
88
F8
88
88
ENDCHAR
STARTCHAR char1073
ENCODING 1073
SWIDTH 67 0
DWIDTH 6 0
BBX 5 5 0 0
BITMAP
F8
80
F0
88
F0
ENDCHAR
STARTCHAR char1074
ENCODING 1074
SWIDTH 67 0
DWIDTH 6 0
BBX 5 5 0 0
BITMAP
F0
88
F8
88
F0
ENDCHAR
STARTCHAR char1075
ENCODING 1075
SWIDTH 67 0
DWIDTH 6 0
BBX 5 5 0 0
BITMAP
F8
80
80
80
80
ENDCHAR
STARTCHAR char1076
ENCODING 1076
SWIDTH 67 0
DWIDTH 6 0
BBX 5 5 0 0
BITMAP
70
50
50
50
F8
ENDCHAR
STARTCHAR char1077
ENCODING 1077
SWIDTH 67 0
DWIDTH 6 0
BBX 5 5 0 0
BITMAP
F8
80
F0
80
F8
ENDCHAR
STARTCHAR char1078
ENCODING 1078
SWIDTH 67 0
DWIDTH 6 0
BBX 5 5 0 0
BITMAP
A8
A8
F8
A8
A8
ENDCHAR
STARTCHAR char1079
ENCODING 1079
SWIDTH 67 0
DWIDTH 6 0
BBX 5 5 0 0
BITMAP
F8
08
70
08
F8
ENDCHAR
STARTCHAR char1080
ENCODING 1080
SWIDTH 67 0
DWIDTH 6 0
BBX 5 5 0 0
BITMAP
88
98
A8
C8
88
ENDCHAR
STARTCHAR char1081
ENCODING 1081
SWIDTH 67 0
DWIDTH 6 0
BBX 5 5 0 0
BITMAP
A8
98
A8
C8
88
ENDCHAR
STARTCHAR char1082
ENCODING 1082
SWIDTH 67 0
DWIDTH 6 0
BBX 5 5 0 0
BITMAP
88
90
E0
90
88
ENDCHAR
STARTCHAR char1083
ENCODING 1083
SWIDTH 67 0
DWIDTH 6 0
BBX 5 5 0 0
BITMAP
38
48
88
88
88
ENDCHAR
STARTCHAR char1084
ENCODING 1084
SWIDTH 67 0
DWIDTH 6 0
BBX 5 5 0 0
BITMAP
88
D8
A8
A8
88
ENDCHAR
STARTCHAR char1085
ENCODING 1085
SWIDTH 67 0
DWIDTH 6 0
BBX 5 5 0 0
BITMAP
88
88
F8
88
88
ENDCHAR
STARTCHAR char1086
ENCODING 1086
SWIDTH 67 0
DWIDTH 6 0
BBX 5 5 0 0
BITMAP
F8
88
88
88
F8
ENDCHAR
STARTCHAR char1087
ENCODING 1087
SWIDTH 67 0
DWIDTH 6 0
BBX 5 5 0 0
BITMAP
F8
88
88
88
88
ENDCHAR
STARTCHAR char1088
ENCODING 1088
SWIDTH 67 0
DWIDTH 6 0
BBX 5 5 0 0
BITMAP
F8
88
F8
80
80
ENDCHAR
STARTCHAR char1089
ENCODING 1089
SWIDTH 67 0
DWIDTH 6 0
BBX 5 5 0 0
BITMAP
F8
80
80
80
F8
ENDCHAR
STARTCHAR char1090
ENCODING 1090
SWIDTH 67 0
DWIDTH 6 0
BBX 5 5 0 0
BITMAP
F8
20
20
20
20
ENDCHAR
STARTCHAR char1091
ENCODING 1091
SWIDTH 67 0
DWIDTH 6 0
BBX 5 5 0 0
BITMAP
88
88
F8
08
F8
ENDCHAR
STARTCHAR char1092
ENCODING 1092
SWIDTH 67 0
DWIDTH 6 0
BBX 5 5 0 0
BITMAP
F8
A8
A8
F8
20
ENDCHAR
STARTCHAR char1093
ENCODING 1093
SWIDTH 67 0
DWIDTH 6 0
BBX 5 5 0 0
BITMAP
88
50
20
50
88
ENDCHAR
STARTCHAR char1094
ENCODING 1094
SWIDTH 67 0
DWIDTH 6 0
BBX 5 5 0 0
BITMAP
90
90
90
90
F8
ENDCHAR
STARTCHAR char1095
ENCODING 1095
SWIDTH 67 0
DWIDTH 6 0
BBX 5 5 0 0
BITMAP
88
88
78
08
08
ENDCHAR
STARTCHAR char1096
ENCODING 1096
SWIDTH 67 0
DWIDTH 6 0
BBX 5 5 0 0
BITMAP
A8
A8
A8
A8
F8
ENDCHAR
STARTCHAR char1097
ENCODING 1097
SWIDTH 67 0
DWIDTH 6 0
BBX 5 5 0 0
BITMAP
A8
A8
A8
F8
08
ENDCHAR
STARTCHAR char1098
ENCODING 1098
SWIDTH 67 0
DWIDTH 6 0
BBX 5 5 0 0
BITMAP
C0
40
78
48
78
ENDCHAR
STARTCHAR char1099
ENCODING 1099
SWIDTH 67 0
DWIDTH 6 0
BBX 5 5 0 0
BITMAP
88
88
E8
A8
E8
ENDCHAR
STARTCHAR char1100
ENCODING 1100
SWIDTH 67 0
DWIDTH 6 0
BBX 5 5 0 0
BITMAP
80
80
F8
88
F8
ENDCHAR
STARTCHAR char1101
ENCODING 1101
SWIDTH 67 0
DWIDTH 6 0
BBX 5 5 0 0
BITMAP
F8
08
38
08
F8
ENDCHAR
STARTCHAR char1102
ENCODING 1102
SWIDTH 67 0
DWIDTH 6 0
BBX 5 5 0 0
BITMAP
B8
A8
E8
A8
B8
ENDCHAR
STARTCHAR char1103
ENCODING 1103
SWIDTH 67 0
DWIDTH 6 0
BBX 5 5 0 0
BITMAP
F8
88
F8
48
88
ENDCHAR
STARTCHAR char1105
ENCODING 1105
SWIDTH 67 0
DWIDTH 6 0
BBX 5 5 0 0
BITMAP
F8
80
F0
80
F8
ENDCHAR
STARTCHAR char1106
ENCODING 1106
SWIDTH 67 0
DWIDTH 6 0
BBX 5 5 0 0
BITMAP
E0
80
F8
88
B8
ENDCHAR
STARTCHAR char1107
ENCODING 1107
SWIDTH 67 0
DWIDTH 6 0
BBX 5 5 0 0
BITMAP
20
F8
80
80
80
ENDCHAR
STARTCHAR char1108
ENCODING 1108
SWIDTH 67 0
DWIDTH 6 0
BBX 5 5 0 0
BITMAP
78
80
E0
80
78
ENDCHAR
STARTCHAR char1109
ENCODING 1109
SWIDTH 67 0
DWIDTH 6 0
BBX 5 5 0 0
BITMAP
F8
80
F8
08
F8
ENDCHAR
STARTCHAR char1110
ENCODING 1110
SWIDTH 67 0
DWIDTH 6 0
BBX 3 5 1 0
BITMAP
E0
40
40
40
E0
ENDCHAR
STARTCHAR char1111
ENCODING 1111
SWIDTH 67 0
DWIDTH 6 0
BBX 3 5 1 0
BITMAP
A0
40
40
40
40
ENDCHAR
STARTCHAR char1112
ENCODING 1112
SWIDTH 67 0
DWIDTH 6 0
BBX 5 5 0 0
BITMAP
F8
08
08
88
70
ENDCHAR
STARTCHAR char1113
ENCODING 1113
SWIDTH 67 0
DWIDTH 6 0
BBX 5 5 0 0
BITMAP
60
A0
B8
A8
B8
ENDCHAR
STARTCHAR char1114
ENCODING 1114
SWIDTH 67 0
DWIDTH 6 0
BBX 5 5 0 0
BITMAP
A0
A0
F8
A8
B8
ENDCHAR
STARTCHAR char1115
ENCODING 1115
SWIDTH 67 0
DWIDTH 6 0
BBX 5 5 0 0
BITMAP
E0
80
F8
88
88
ENDCHAR
STARTCHAR char1116
ENCODING 1116
SWIDTH 67 0
DWIDTH 6 0
BBX 5 5 0 0
BITMAP
A8
90
E0
90
88
ENDCHAR
STARTCHAR char1118
ENCODING 1118
SWIDTH 67 0
DWIDTH 6 0
BBX 5 5 0 0
BITMAP
A8
88
50
20
20
ENDCHAR
STARTCHAR char1119
ENCODING 1119
SWIDTH 67 0
DWIDTH 6 0
BBX 5 5 0 0
BITMAP
88
88
88
F8
20
ENDCHAR
STARTCHAR char1168
ENCODING 1168
SWIDTH 67 0
DWIDTH 6 0
BBX 5 5 0 0
BITMAP
08
F8
80
80
80
ENDCHAR
STARTCHAR char1169
ENCODING 1169
SWIDTH 67 0
DWIDTH 6 0
BBX 5 5 0 0
BITMAP
08
F8
80
80
80
ENDCHAR
STARTCHAR char8211
ENCODING 8211
SWIDTH 67 0
DWIDTH 6 0
BBX 3 1 1 2
BITMAP
E0
ENDCHAR
STARTCHAR char8212
ENCODING 8212
SWIDTH 67 0
DWIDTH 6 0
BBX 5 1 0 2
BITMAP
F8
ENDCHAR
STARTCHAR char8216
ENCODING 8216
SWIDTH 67 0
DWIDTH 6 0
BBX 2 2 2 3
BITMAP
80
40
ENDCHAR
STARTCHAR char8217
ENCODING 8217
SWIDTH 67 0
DWIDTH 6 0
BBX 2 2 2 3
BITMAP
80
40
ENDCHAR
STARTCHAR char8218
ENCODING 8218
SWIDTH 67 0
DWIDTH 6 0
BBX 2 2 2 0
BITMAP
80
40
ENDCHAR
STARTCHAR char8220
ENCODING 8220
SWIDTH 67 0
DWIDTH 6 0
BBX 3 2 1 3
BITMAP
A0
A0
ENDCHAR
STARTCHAR char8221
ENCODING 8221
SWIDTH 67 0
DWIDTH 6 0
BBX 3 2 1 3
BITMAP
A0
A0
ENDCHAR
STARTCHAR char8222
ENCODING 8222
SWIDTH 67 0
DWIDTH 6 0
BBX 3 2 1 0
BITMAP
A0
A0
ENDCHAR
STARTCHAR char8224
ENCODING 8224
SWIDTH 67 0
DWIDTH 6 0
BBX 3 5 1 0
BITMAP
40
E0
40
40
40
ENDCHAR
STARTCHAR char8225
ENCODING 8225
SWIDTH 67 0
DWIDTH 6 0
BBX 3 5 1 0
BITMAP
40
E0
40
E0
40
ENDCHAR
STARTCHAR char8226
ENCODING 8226
SWIDTH 67 0
DWIDTH 6 0
BBX 3 3 1 1
BITMAP
E0
E0
E0
ENDCHAR
STARTCHAR char8230
ENCODING 8230
SWIDTH 67 0
DWIDTH 6 0
BBX 5 1 0 0
BITMAP
A8
ENDCHAR
STARTCHAR char8240
ENCODING 8240
SWIDTH 67 0
DWIDTH 6 0
BBX 5 5 0 0
BITMAP
88
10
20
40
A8
ENDCHAR
STARTCHAR char8249
ENCODING 8249
SWIDTH 67 0
DWIDTH 6 0
BBX 3 5 1 0
BITMAP
20
40
80
40
20
ENDCHAR
STARTCHAR char8250
ENCODING 8250
SWIDTH 67 0
DWIDTH 6 0
BBX 3 5 1 0
BITMAP
80
40
20
40
80
ENDCHAR
STARTCHAR char8364
ENCODING 8364
SWIDTH 67 0
DWIDTH 6 0
BBX 5 5 0 0
BITMAP
78
80
F8
80
78
ENDCHAR
STARTCHAR char8470
ENCODING 8470
SWIDTH 67 0
DWIDTH 6 0
BBX 5 5 0 0
BITMAP
88
C0
A8
98
88
ENDCHAR
STARTCHAR char8482
ENCODING 8482
SWIDTH 67 0
DWIDTH 6 0
BBX 6 5 0 0
BITMAP
FC
FC
FC
FC
FC
ENDCHAR
ENDFONT
